<svg xmlns="http://www.w3.org/2000/svg" width="1100" height="330" viewBox="0 0 1100 330" role="img" aria-label="All-time tracked traffic">
<rect width="100%" height="100%" fill="#0d1117" rx="10"/>
<text x="72" y="27" fill="#f0f6fc" font-family="system-ui,sans-serif" font-size="18" font-weight="600">All-time tracked traffic</text>
<text x="72" y="47" fill="#8b949e" font-family="system-ui,sans-serif" font-size="12">Cumulative stored views and clones since 2026-07-29</text>
<line x1="72" x2="1075" y1="276.0" y2="276.0" stroke="#21262d"/>
<text x="64" y="280.0" text-anchor="end" fill="#8b949e" font-family="system-ui,sans-serif" font-size="11">0</text>
<line x1="72" x2="1075" y1="221.5" y2="221.5" stroke="#21262d"/>
<text x="64" y="225.5" text-anchor="end" fill="#8b949e" font-family="system-ui,sans-serif" font-size="11">0</text>
<line x1="72" x2="1075" y1="167.0" y2="167.0" stroke="#21262d"/>
<text x="64" y="171.0" text-anchor="end" fill="#8b949e" font-family="system-ui,sans-serif" font-size="11">0</text>
<line x1="72" x2="1075" y1="112.5" y2="112.5" stroke="#21262d"/>
<text x="64" y="116.5" text-anchor="end" fill="#8b949e" font-family="system-ui,sans-serif" font-size="11">1</text>
<line x1="72" x2="1075" y1="58.0" y2="58.0" stroke="#21262d"/>
<text x="64" y="62.0" text-anchor="end" fill="#8b949e" font-family="system-ui,sans-serif" font-size="11">1</text>
<text x="72.0" y="306" text-anchor="middle" fill="#8b949e" font-family="system-ui,sans-serif" font-size="10">2026-07-29</text>
<text x="207.5" y="306" text-anchor="middle" fill="#8b949e" font-family="system-ui,sans-serif" font-size="10">2026-08-03</text>
<text x="370.2" y="306" text-anchor="middle" fill="#8b949e" font-family="system-ui,sans-serif" font-size="10">2026-08-09</text>
<text x="505.7" y="306" text-anchor="middle" fill="#8b949e" font-family="system-ui,sans-serif" font-size="10">2026-08-14</text>
<text x="641.3" y="306" text-anchor="middle" fill="#8b949e" font-family="system-ui,sans-serif" font-size="10">2026-08-19</text>
<text x="776.8" y="306" text-anchor="middle" fill="#8b949e" font-family="system-ui,sans-serif" font-size="10">2026-08-24</text>
<text x="939.5" y="306" text-anchor="middle" fill="#8b949e" font-family="system-ui,sans-serif" font-size="10">2026-08-30</text>
<text x="1075.0" y="306" text-anchor="middle" fill="#8b949e" font-family="system-ui,sans-serif" font-size="10">2026-09-04</text>
<polyline points="72.0,276.0 99.1,276.0 126.2,276.0 153.3,276.0 180.4,276.0 207.5,276.0 234.6,276.0 261.8,276.0 288.9,276.0 316.0,276.0 343.1,276.0 370.2,276.0 397.3,276.0 424.4,276.0 451.5,276.0 478.6,276.0 505.7,276.0 532.8,276.0 559.9,276.0 587.1,276.0 614.2,276.0 641.3,276.0 668.4,276.0 695.5,276.0 722.6,276.0 749.7,276.0 776.8,276.0 803.9,276.0 831.0,276.0 858.1,276.0 885.2,276.0 912.4,276.0 939.5,276.0 966.6,276.0 993.7,276.0 1020.8,276.0 1047.9,276.0 1075.0,276.0" fill="none" stroke="#2f81f7" stroke-width="2" stroke-linecap="round" stroke-linejoin="round"/>
<line x1="72" x2="96" y1="322" y2="322" stroke="#2f81f7" stroke-width="3"/>
<text x="102" y="326" fill="#c9d1d9" font-family="system-ui,sans-serif" font-size="11">Views</text>
<polyline points="72.0,276.0 99.1,276.0 126.2,276.0 153.3,276.0 180.4,276.0 207.5,276.0 234.6,276.0 261.8,276.0 288.9,276.0 316.0,276.0 343.1,276.0 370.2,276.0 397.3,276.0 424.4,276.0 451.5,276.0 478.6,276.0 505.7,276.0 532.8,276.0 559.9,276.0 587.1,276.0 614.2,276.0 641.3,276.0 668.4,276.0 695.5,276.0 722.6,276.0 749.7,276.0 776.8,276.0 803.9,276.0 831.0,276.0 858.1,276.0 885.2,276.0 912.4,276.0 939.5,276.0 966.6,276.0 993.7,276.0 1020.8,276.0 1047.9,276.0 1075.0,276.0" fill="none" stroke="#3fb950" stroke-width="2" stroke-linecap="round" stroke-linejoin="round"/>
<line x1="277" x2="301" y1="322" y2="322" stroke="#3fb950" stroke-width="3"/>
<text x="307" y="326" fill="#c9d1d9" font-family="system-ui,sans-serif" font-size="11">Clones</text>
</svg>
