<svg xmlns="http://www.w3.org/2000/svg" width="1100" height="330" viewBox="0 0 1100 330" role="img" aria-label="All-time tracked traffic">
<rect width="100%" height="100%" fill="#0d1117" rx="10"/>
<text x="72" y="27" fill="#f0f6fc" font-family="system-ui,sans-serif" font-size="18" font-weight="600">All-time tracked traffic</text>
<text x="72" y="47" fill="#8b949e" font-family="system-ui,sans-serif" font-size="12">Cumulative stored views and clones since 2026-07-29</text>
<line x1="72" x2="1075" y1="276.0" y2="276.0" stroke="#21262d"/>
<text x="64" y="280.0" text-anchor="end" fill="#8b949e" font-family="system-ui,sans-serif" font-size="11">0</text>
<line x1="72" x2="1075" y1="221.5" y2="221.5" stroke="#21262d"/>
<text x="64" y="225.5" text-anchor="end" fill="#8b949e" font-family="system-ui,sans-serif" font-size="11">0</text>
<line x1="72" x2="1075" y1="167.0" y2="167.0" stroke="#21262d"/>
<text x="64" y="171.0" text-anchor="end" fill="#8b949e" font-family="system-ui,sans-serif" font-size="11">0</text>
<line x1="72" x2="1075" y1="112.5" y2="112.5" stroke="#21262d"/>
<text x="64" y="116.5" text-anchor="end" fill="#8b949e" font-family="system-ui,sans-serif" font-size="11">1</text>
<line x1="72" x2="1075" y1="58.0" y2="58.0" stroke="#21262d"/>
<text x="64" y="62.0" text-anchor="end" fill="#8b949e" font-family="system-ui,sans-serif" font-size="11">1</text>
<text x="72.0" y="306" text-anchor="middle" fill="#8b949e" font-family="system-ui,sans-serif" font-size="10">2026-07-29</text>
<text x="205.7" y="306" text-anchor="middle" fill="#8b949e" font-family="system-ui,sans-serif" font-size="10">2026-07-31</text>
<text x="339.5" y="306" text-anchor="middle" fill="#8b949e" font-family="system-ui,sans-serif" font-size="10">2026-08-02</text>
<text x="473.2" y="306" text-anchor="middle" fill="#8b949e" font-family="system-ui,sans-serif" font-size="10">2026-08-04</text>
<text x="673.8" y="306" text-anchor="middle" fill="#8b949e" font-family="system-ui,sans-serif" font-size="10">2026-08-07</text>
<text x="807.5" y="306" text-anchor="middle" fill="#8b949e" font-family="system-ui,sans-serif" font-size="10">2026-08-09</text>
<text x="941.3" y="306" text-anchor="middle" fill="#8b949e" font-family="system-ui,sans-serif" font-size="10">2026-08-11</text>
<text x="1075.0" y="306" text-anchor="middle" fill="#8b949e" font-family="system-ui,sans-serif" font-size="10">2026-08-13</text>
<polyline points="72.0,276.0 138.9,276.0 205.7,276.0 272.6,276.0 339.5,276.0 406.3,276.0 473.2,276.0 540.1,276.0 606.9,276.0 673.8,276.0 740.7,276.0 807.5,276.0 874.4,276.0 941.3,276.0 1008.1,276.0 1075.0,276.0" fill="none" stroke="#2f81f7" stroke-width="2" stroke-linecap="round" stroke-linejoin="round"/>
<line x1="72" x2="96" y1="322" y2="322" stroke="#2f81f7" stroke-width="3"/>
<text x="102" y="326" fill="#c9d1d9" font-family="system-ui,sans-serif" font-size="11">Views</text>
<polyline points="72.0,276.0 138.9,276.0 205.7,276.0 272.6,276.0 339.5,276.0 406.3,276.0 473.2,276.0 540.1,276.0 606.9,276.0 673.8,276.0 740.7,276.0 807.5,276.0 874.4,276.0 941.3,276.0 1008.1,276.0 1075.0,276.0" fill="none" stroke="#3fb950" stroke-width="2" stroke-linecap="round" stroke-linejoin="round"/>
<line x1="277" x2="301" y1="322" y2="322" stroke="#3fb950" stroke-width="3"/>
<text x="307" y="326" fill="#c9d1d9" font-family="system-ui,sans-serif" font-size="11">Clones</text>
</svg>
