<svg xmlns="http://www.w3.org/2000/svg" width="1100" height="330" viewBox="0 0 1100 330" role="img" aria-label="All-time tracked traffic">
<rect width="100%" height="100%" fill="#0d1117" rx="10"/>
<text x="72" y="27" fill="#f0f6fc" font-family="system-ui,sans-serif" font-size="18" font-weight="600">All-time tracked traffic</text>
<text x="72" y="47" fill="#8b949e" font-family="system-ui,sans-serif" font-size="12">Cumulative stored views and clones since 2026-07-29</text>
<line x1="72" x2="1075" y1="276.0" y2="276.0" stroke="#21262d"/>
<text x="64" y="280.0" text-anchor="end" fill="#8b949e" font-family="system-ui,sans-serif" font-size="11">0</text>
<line x1="72" x2="1075" y1="221.5" y2="221.5" stroke="#21262d"/>
<text x="64" y="225.5" text-anchor="end" fill="#8b949e" font-family="system-ui,sans-serif" font-size="11">0</text>
<line x1="72" x2="1075" y1="167.0" y2="167.0" stroke="#21262d"/>
<text x="64" y="171.0" text-anchor="end" fill="#8b949e" font-family="system-ui,sans-serif" font-size="11">0</text>
<line x1="72" x2="1075" y1="112.5" y2="112.5" stroke="#21262d"/>
<text x="64" y="116.5" text-anchor="end" fill="#8b949e" font-family="system-ui,sans-serif" font-size="11">1</text>
<line x1="72" x2="1075" y1="58.0" y2="58.0" stroke="#21262d"/>
<text x="64" y="62.0" text-anchor="end" fill="#8b949e" font-family="system-ui,sans-serif" font-size="11">1</text>
<text x="72.0" y="306" text-anchor="middle" fill="#8b949e" font-family="system-ui,sans-serif" font-size="10">2026-07-29</text>
<text x="219.5" y="306" text-anchor="middle" fill="#8b949e" font-family="system-ui,sans-serif" font-size="10">2026-08-03</text>
<text x="367.0" y="306" text-anchor="middle" fill="#8b949e" font-family="system-ui,sans-serif" font-size="10">2026-08-08</text>
<text x="514.5" y="306" text-anchor="middle" fill="#8b949e" font-family="system-ui,sans-serif" font-size="10">2026-08-13</text>
<text x="632.5" y="306" text-anchor="middle" fill="#8b949e" font-family="system-ui,sans-serif" font-size="10">2026-08-17</text>
<text x="780.0" y="306" text-anchor="middle" fill="#8b949e" font-family="system-ui,sans-serif" font-size="10">2026-08-22</text>
<text x="927.5" y="306" text-anchor="middle" fill="#8b949e" font-family="system-ui,sans-serif" font-size="10">2026-08-27</text>
<text x="1075.0" y="306" text-anchor="middle" fill="#8b949e" font-family="system-ui,sans-serif" font-size="10">2026-09-01</text>
<polyline points="72.0,276.0 101.5,276.0 131.0,276.0 160.5,276.0 190.0,276.0 219.5,276.0 249.0,276.0 278.5,276.0 308.0,276.0 337.5,276.0 367.0,276.0 396.5,276.0 426.0,276.0 455.5,276.0 485.0,276.0 514.5,276.0 544.0,276.0 573.5,276.0 603.0,276.0 632.5,276.0 662.0,276.0 691.5,276.0 721.0,276.0 750.5,276.0 780.0,276.0 809.5,276.0 839.0,276.0 868.5,276.0 898.0,276.0 927.5,276.0 957.0,276.0 986.5,276.0 1016.0,276.0 1045.5,276.0 1075.0,276.0" fill="none" stroke="#2f81f7" stroke-width="2" stroke-linecap="round" stroke-linejoin="round"/>
<line x1="72" x2="96" y1="322" y2="322" stroke="#2f81f7" stroke-width="3"/>
<text x="102" y="326" fill="#c9d1d9" font-family="system-ui,sans-serif" font-size="11">Views</text>
<polyline points="72.0,276.0 101.5,276.0 131.0,276.0 160.5,276.0 190.0,276.0 219.5,276.0 249.0,276.0 278.5,276.0 308.0,276.0 337.5,276.0 367.0,276.0 396.5,276.0 426.0,276.0 455.5,276.0 485.0,276.0 514.5,276.0 544.0,276.0 573.5,276.0 603.0,276.0 632.5,276.0 662.0,276.0 691.5,276.0 721.0,276.0 750.5,276.0 780.0,276.0 809.5,276.0 839.0,276.0 868.5,276.0 898.0,276.0 927.5,276.0 957.0,276.0 986.5,276.0 1016.0,276.0 1045.5,276.0 1075.0,276.0" fill="none" stroke="#3fb950" stroke-width="2" stroke-linecap="round" stroke-linejoin="round"/>
<line x1="277" x2="301" y1="322" y2="322" stroke="#3fb950" stroke-width="3"/>
<text x="307" y="326" fill="#c9d1d9" font-family="system-ui,sans-serif" font-size="11">Clones</text>
</svg>
