<svg xmlns="http://www.w3.org/2000/svg" width="1100" height="330" viewBox="0 0 1100 330" role="img" aria-label="All-time tracked traffic">
<rect width="100%" height="100%" fill="#0d1117" rx="10"/>
<text x="72" y="27" fill="#f0f6fc" font-family="system-ui,sans-serif" font-size="18" font-weight="600">All-time tracked traffic</text>
<text x="72" y="47" fill="#8b949e" font-family="system-ui,sans-serif" font-size="12">Cumulative stored views and clones since 2026-07-29</text>
<line x1="72" x2="1075" y1="276.0" y2="276.0" stroke="#21262d"/>
<text x="64" y="280.0" text-anchor="end" fill="#8b949e" font-family="system-ui,sans-serif" font-size="11">0</text>
<line x1="72" x2="1075" y1="221.5" y2="221.5" stroke="#21262d"/>
<text x="64" y="225.5" text-anchor="end" fill="#8b949e" font-family="system-ui,sans-serif" font-size="11">0</text>
<line x1="72" x2="1075" y1="167.0" y2="167.0" stroke="#21262d"/>
<text x="64" y="171.0" text-anchor="end" fill="#8b949e" font-family="system-ui,sans-serif" font-size="11">0</text>
<line x1="72" x2="1075" y1="112.5" y2="112.5" stroke="#21262d"/>
<text x="64" y="116.5" text-anchor="end" fill="#8b949e" font-family="system-ui,sans-serif" font-size="11">1</text>
<line x1="72" x2="1075" y1="58.0" y2="58.0" stroke="#21262d"/>
<text x="64" y="62.0" text-anchor="end" fill="#8b949e" font-family="system-ui,sans-serif" font-size="11">1</text>
<text x="72.0" y="306" text-anchor="middle" fill="#8b949e" font-family="system-ui,sans-serif" font-size="10">2026-07-29</text>
<text x="218.3" y="306" text-anchor="middle" fill="#8b949e" font-family="system-ui,sans-serif" font-size="10">2026-08-05</text>
<text x="364.5" y="306" text-anchor="middle" fill="#8b949e" font-family="system-ui,sans-serif" font-size="10">2026-08-12</text>
<text x="510.8" y="306" text-anchor="middle" fill="#8b949e" font-family="system-ui,sans-serif" font-size="10">2026-08-19</text>
<text x="636.2" y="306" text-anchor="middle" fill="#8b949e" font-family="system-ui,sans-serif" font-size="10">2026-08-25</text>
<text x="782.5" y="306" text-anchor="middle" fill="#8b949e" font-family="system-ui,sans-serif" font-size="10">2026-09-01</text>
<text x="928.7" y="306" text-anchor="middle" fill="#8b949e" font-family="system-ui,sans-serif" font-size="10">2026-09-08</text>
<text x="1075.0" y="306" text-anchor="middle" fill="#8b949e" font-family="system-ui,sans-serif" font-size="10">2026-09-15</text>
<polyline points="72.0,276.0 92.9,276.0 113.8,276.0 134.7,276.0 155.6,276.0 176.5,276.0 197.4,276.0 218.3,276.0 239.2,276.0 260.1,276.0 281.0,276.0 301.9,276.0 322.8,276.0 343.6,276.0 364.5,276.0 385.4,276.0 406.3,276.0 427.2,276.0 448.1,276.0 469.0,276.0 489.9,276.0 510.8,276.0 531.7,276.0 552.6,276.0 573.5,276.0 594.4,276.0 615.3,276.0 636.2,276.0 657.1,276.0 678.0,276.0 698.9,276.0 719.8,276.0 740.7,276.0 761.6,276.0 782.5,276.0 803.4,276.0 824.2,276.0 845.1,276.0 866.0,276.0 886.9,276.0 907.8,276.0 928.7,276.0 949.6,276.0 970.5,276.0 991.4,276.0 1012.3,276.0 1033.2,276.0 1054.1,276.0 1075.0,276.0" fill="none" stroke="#2f81f7" stroke-width="2" stroke-linecap="round" stroke-linejoin="round"/>
<line x1="72" x2="96" y1="322" y2="322" stroke="#2f81f7" stroke-width="3"/>
<text x="102" y="326" fill="#c9d1d9" font-family="system-ui,sans-serif" font-size="11">Views</text>
<polyline points="72.0,276.0 92.9,276.0 113.8,276.0 134.7,276.0 155.6,276.0 176.5,276.0 197.4,276.0 218.3,276.0 239.2,276.0 260.1,276.0 281.0,276.0 301.9,276.0 322.8,276.0 343.6,276.0 364.5,276.0 385.4,276.0 406.3,276.0 427.2,276.0 448.1,276.0 469.0,276.0 489.9,276.0 510.8,276.0 531.7,276.0 552.6,276.0 573.5,276.0 594.4,276.0 615.3,276.0 636.2,276.0 657.1,276.0 678.0,276.0 698.9,276.0 719.8,276.0 740.7,276.0 761.6,276.0 782.5,276.0 803.4,276.0 824.2,276.0 845.1,276.0 866.0,276.0 886.9,276.0 907.8,276.0 928.7,276.0 949.6,276.0 970.5,276.0 991.4,276.0 1012.3,276.0 1033.2,276.0 1054.1,276.0 1075.0,276.0" fill="none" stroke="#3fb950" stroke-width="2" stroke-linecap="round" stroke-linejoin="round"/>
<line x1="277" x2="301" y1="322" y2="322" stroke="#3fb950" stroke-width="3"/>
<text x="307" y="326" fill="#c9d1d9" font-family="system-ui,sans-serif" font-size="11">Clones</text>
</svg>
